<?xml version="1.0" standalone="no"?>
<!DOCTYPE svg PUBLIC "-//W3C//DTD SVG 20010904//EN"
 "http://www.w3.org/TR/2001/REC-SVG-20010904/DTD/svg10.dtd">
<svg version="1.0" xmlns="http://www.w3.org/2000/svg"
 width="128.000000pt" height="128.000000pt" viewBox="0 0 128.000000 128.000000"
 preserveAspectRatio="xMidYMid meet">
<metadata>
Created by potrace 1.11, written by Peter Selinger 2001-2013
</metadata>
<g transform="translate(0.000000,128.000000) scale(0.100000,-0.100000)"
fill="#000000" stroke="none">
<path d="M0 1185 c0 -64 2 -75 18 -76 19 -1 123 -1 134 0 4 1 6 35 6 76 l-1
75 -78 0 -79 0 0 -75z"/>
<path d="M318 1253 c-4 -7 -3 -118 1 -140 0 -5 79 -8 173 -7 103 0 198 -4 234
-12 211 -43 366 -221 378 -436 12 -219 -139 -428 -349 -483 -261 -67 -531 97
-584 356 -7 31 -12 138 -13 238 l-1 181 -79 0 -80 0 5 -217 c5 -236 13 -283
66 -386 73 -142 202 -256 351 -309 159 -57 350 -44 504 34 155 79 281 242 322
416 22 92 14 264 -16 347 -66 182 -196 315 -379 389 -75 30 -78 30 -302 34
-125 2 -229 0 -231 -5z"/>
<path d="M319 938 c-5 -70 -2 -324 4 -362 11 -66 40 -120 88 -167 120 -118
301 -123 427 -13 74 64 107 137 106 234 0 129 -67 233 -184 289 -52 25 -64 26
-247 29 -156 3 -193 1 -194 -10z m397 -174 c52 -39 69 -71 69 -132 -1 -66 -20
-101 -71 -133 -75 -46 -169 -22 -218 56 -16 24 -20 51 -21 133 l-2 104 108 -4
c90 -2 112 -6 135 -24z"/>
</g>
</svg>
